<?xml version="1.0" standalone="no"?>
<!DOCTYPE svg PUBLIC "-//W3C//DTD SVG 20010904//EN"
 "http://www.w3.org/TR/2001/REC-SVG-20010904/DTD/svg10.dtd">
<svg version="1.0" xmlns="http://www.w3.org/2000/svg"
 width="550pt" height="200pt" viewBox="0 0 550 200"
 preserveAspectRatio="xMidYMid meet">

<g transform="translate(0.000000,230.000000) scale(0.100000,-0.100000)"
fill="#000000" stroke="none">
<path d="M877 1740 c-140 -13 -207 -63 -227 -170 -17 -91 -24 -364 -11 -498
13 -138 30 -185 84 -226 56 -43 100 -47 512 -53 614 -8 698 6 750 130 26 63
40 322 27 501 -13 170 -27 222 -74 261 -64 54 -97 58 -553 61 -231 1 -460 -1
-508 -6z m496 -365 c97 -55 177 -102 177 -105 0 -4 -337 -198 -362 -208 -4 -2
-8 92 -8 208 0 116 4 210 8 208 5 -1 88 -48 185 -103z" fill="#ff0000"/>
<path d="M2069 1707 c47 -77 56 -143 56 -437 0 -294 -9 -360 -56 -437 l-21
-33 1331 0 1330 0 28 24 28 24 0 422 0 422 -28 24 -28 24 -1330 0 -1331 0 21
-33z m1735 -103 c4 -10 -7 -32 -29 -58 -129 -158 -129 -394 0 -552 58 -70 16
-107 -43 -39 -132 149 -155 379 -55 553 53 93 111 137 127 96z m676 -16 c47
-52 97 -159 110 -240 16 -93 2 -197 -39 -284 -33 -70 -95 -144 -121 -144 -29
0 -33 31 -7 59 87 95 128 230 107 355 -11 68 -54 165 -98 219 -52 65 -9 96 48
35z m-584 -73 c3 -8 -8 -32 -26 -55 -45 -57 -73 -151 -66 -217 7 -64 20 -94
64 -156 35 -49 37 -77 3 -77 -25 0 -68 51 -100 120 -21 46 -26 70 -26 140 0
70 5 94 26 140 46 97 108 150 125 105z m487 -12 c14 -16 38 -55 54 -88 24 -51
28 -73 28 -145 0 -72 -4 -94 -28 -145 -32 -68 -72 -115 -99 -115 -32 0 -31 28
1 69 89 112 92 263 6 375 -35 46 -38 76 -6 76 10 0 29 -12 44 -27z m-1933 -21
c0 -4 -9 -79 -20 -167 -11 -88 -20 -165 -20 -172 0 -9 20 -13 69 -13 39 0 72
-4 75 -9 3 -5 3 -23 0 -40 l-6 -31 -119 0 c-108 0 -119 2 -119 18 0 20 36 324
46 385 6 36 7 37 50 37 24 0 44 -4 44 -8z m286 -19 c-3 -16 -15 -111 -27 -213
-11 -102 -23 -188 -26 -192 -5 -9 -77 -11 -84 -3 -4 3 44 413 50 433 1 1 22 2
47 2 44 0 45 -1 40 -27z m121 19 c7 -4 27 -75 44 -157 17 -83 32 -151 33 -152
1 -2 33 67 70 152 38 84 75 156 83 159 16 7 83 8 83 2 0 -2 -47 -101 -105
-220 l-105 -216 -40 0 c-37 0 -40 2 -49 38 -49 186 -97 392 -93 397 8 8 65 6
79 -3z m601 -29 l-3 -38 -81 -3 c-89 -3 -94 -7 -94 -74 0 -27 1 -28 60 -28
l60 0 0 -35 0 -35 -65 0 -64 0 -6 -37 c-3 -21 -8 -46 -10 -55 -3 -16 6 -18 76
-18 86 0 97 -7 85 -55 -6 -25 -7 -25 -130 -25 -67 0 -125 2 -127 5 -4 3 45
419 50 433 1 1 58 2 127 2 l125 0 -3 -37z m825 -30 c74 -78 76 -224 5 -300
-38 -41 -92 -16 -55 25 24 27 47 87 47 125 0 31 -17 72 -50 124 -11 18 -12 24
-1 37 18 22 23 20 54 -11z m-297 3 c3 -8 -7 -33 -21 -55 -48 -71 -44 -132 13
-224 16 -27 16 -29 -3 -43 -19 -14 -22 -13 -51 20 -69 79 -72 197 -7 284 25
33 60 42 69 18z m164 -86 c25 -13 41 -65 30 -94 -11 -30 -47 -56 -77 -56 -36
0 -76 42 -76 80 0 58 70 98 123 70z" fill="#ff0000"/>
</g>
</svg>